<svg xmlns="http://www.w3.org/2000/svg" viewBox="0 0 320 200" role="img"><defs><linearGradient id="g" x1="0" y1="0" x2="0" y2="1"><stop offset="0" stop-color="#f4f7fc"/><stop offset="1" stop-color="#e3eaf6"/></linearGradient></defs><rect width="320" height="200" fill="url(#g)"/><ellipse cx="160" cy="176" rx="118" ry="10" fill="#dbe6fb"/><g stroke="#1f2a44" stroke-width="3.5" stroke-linecap="round" stroke-linejoin="round"><path d="M46 100 H274" stroke="#5b6478" stroke-width="2.5" fill="none"/><path d="M70 100 C70 56 130 52 150 82 C150 116 110 130 70 100Z" fill="#f0c84a"/><path d="M88 96 C100 74 122 72 136 84" fill="none" stroke="#fff" opacity=".7" stroke-width="3"/><path d="M230 100 C248 84 268 84 282 96 C268 110 248 114 230 100Z" fill="#e0483a"/><path d="M230 100 l-10 -12 M230 100 l-10 12" stroke-width="4" fill="none"/><g transform="translate(236 106) rotate(0) scale(0.6)" fill="none" stroke="#5b6478"><circle r="4"/><path d="M0 4 V44 C0 64 -26 66 -26 46 L-20 40"/><path d="M-26 46 L-20 34" stroke-width="3"/></g></g></svg>
