<svg xmlns="http://www.w3.org/2000/svg" viewBox="0 0 320 200" role="img"><defs><linearGradient id="g" x1="0" y1="0" x2="0" y2="1"><stop offset="0" stop-color="#f4f7fc"/><stop offset="1" stop-color="#e3eaf6"/></linearGradient></defs><rect width="320" height="200" fill="url(#g)"/><ellipse cx="160" cy="176" rx="118" ry="10" fill="#dbe6fb"/><g stroke="#1f2a44" stroke-width="3.5" stroke-linecap="round" stroke-linejoin="round"><path d="M160 40 C200 90 196 130 160 132 C124 130 120 90 160 40Z" fill="#f2b632"/><path d="M148 70 C142 90 146 108 156 118" fill="none" stroke="#fff" opacity=".7" stroke-width="4"/><circle cx="160" cy="40" r="5" fill="#fff"/><g transform="translate(160 134) scale(0.7)" fill="none" stroke="#5b6478"><circle cy="-4" r="4"/><path d="M0 0 V14"/><path d="M0 14 C-4 30 -20 30 -20 20"/><path d="M0 14 C4 30 20 30 20 20"/><path d="M0 14 V30"/></g></g></svg>
